<svg
  width="192"
  height="192"
  viewBox="0 0 192 192"
  fill="none"
  xmlns="http://www.w3.org/2000/svg"
>
  <path
    d="M96 192C149.019 192 192 149.019 192 96C192 42.9807 149.019 0 96 0C42.9807 0 0 42.9807 0 96C0 149.019 42.9807 192 96 192Z"
    fill="#32BA7C"
  />
  <path
    d="M71.47 139.306L120.833 188.669C161.716 177.767 192 140.517 192 96C192 95.0915 192 94.183 192 93.2744L153.237 57.5394L71.47 139.306Z"
    fill="#0AA06E"
  />
  <path
    d="M98.4227 117.502C102.662 121.741 102.662 129.009 98.4227 133.249L89.6404 142.032C85.4006 146.271 78.1325 146.271 73.8927 142.032L35.4322 103.268C31.1924 99.0284 31.1924 91.7603 35.4322 87.5205L44.2145 78.7382C48.4543 74.4984 55.7224 74.4984 59.9621 78.7382L98.4227 117.502Z"
    fill="white"
  />
  <path
    d="M132.038 50.5742C136.278 46.3344 143.546 46.3344 147.785 50.5742L156.568 59.3565C160.808 63.5962 160.808 70.8644 156.568 75.1041L89.9432 141.426C85.7035 145.666 78.4353 145.666 74.1956 141.426L65.4132 132.644C61.1735 128.404 61.1735 121.136 65.4132 116.896L132.038 50.5742Z"
    fill="white"
  />
</svg>
